<?xml version="1.0" encoding="utf-8"?>
<!-- Generator: Adobe Illustrator 25.3.1, SVG Export Plug-In . SVG Version: 6.00 Build 0)  -->
<svg version="1.1" id="Layer_1" xmlns="http://www.w3.org/2000/svg" xmlns:xlink="http://www.w3.org/1999/xlink" x="0px" y="0px"
	 viewBox="0 0 100 98.4" style="enable-background:new 0 0 100 98.4;" xml:space="preserve">
<g>
	<path d="M27.2,41.1c7.5,0,13.5,6.1,13.5,13.5s-6.1,13.5-13.5,13.5S13.7,62,13.7,54.6S19.7,41.1,27.2,41.1 M27.2,39.2
		c-8.5,0-15.4,6.9-15.4,15.4S18.7,70,27.2,70s15.4-6.9,15.4-15.4S35.7,39.2,27.2,39.2L27.2,39.2z"/>
	<path d="M78.3,41.1c7.5,0,13.5,6.1,13.5,13.5s-6.1,13.5-13.5,13.5c-7.5,0-13.5-6.1-13.5-13.5S70.8,41.1,78.3,41.1 M78.3,39.2
		c-8.5,0-15.4,6.9-15.4,15.4S69.8,70,78.3,70c8.5,0,15.4-6.9,15.4-15.4S86.8,39.2,78.3,39.2L78.3,39.2z"/>
	<path d="M78.6,54.4L66.2,32.3l1-3.5h1.6c0.2,0,0.4-0.2,0.4-0.4S69,28,68.8,28h-8.9c-0.2,0-0.4,0.2-0.4,0.4s0.2,0.4,0.4,0.4h6.4
		l-0.9,3.1H33.9l0.5-3.4c0-0.1,0-0.2-0.1-0.3S34.1,28,34,28h-5.8c0,0,0,0,0,0c-1.6,0-2.9,1.4-2.9,3c0,1.7,1.3,3,3,3
		c0.8,0,1.6-0.3,2.1-0.9c0.2-0.2,0.2-0.4,0-0.6c-0.2-0.2-0.4-0.2-0.6,0c-0.4,0.4-1,0.6-1.6,0.6c-1.2,0-2.2-1-2.2-2.2s1-2.2,2.2-2.2
		h5.3l-1.3,9.4l-5.4,16.2c-0.1,0.2,0,0.4,0.3,0.5c0,0,0.1,0,0.1,0c0.2,0,0.3-0.1,0.4-0.3L33,38.5c0,0,0,0,0-0.1l0.3-2.5l25.6,19
		C59,55,59.1,55,59.2,55h19.1c0.1,0,0.3-0.1,0.3-0.2C78.7,54.7,78.7,54.5,78.6,54.4z M59,53.9L33.5,35l0.3-2.3h31.4l-2.7,9.2l0,0
		l0,0L59,53.9z M59.7,54.2l3.5-12.1l0,0l2.6-8.8l11.7,20.8C77.6,54.2,59.7,54.2,59.7,54.2z"/>
	<path d="M93.6,70.4H6.4C6.1,70.4,6,70.2,6,70s0.2-0.4,0.4-0.4h87.3c0.2,0,0.4,0.2,0.4,0.4C94,70.2,93.9,70.4,93.6,70.4z"/>
	<path d="M24,70h-3.5V40.8c0-3-2.4-5.4-5.4-5.4s-5.4,2.4-5.4,5.4V70H6.2V40.8c0-4.9,4-8.9,8.9-8.9s8.9,4,8.9,8.9L24,70L24,70z"/>
</g>
</svg>
