<svg xmlns="http://www.w3.org/2000/svg" viewBox="0 0 512 512"><path d="M275.21,86.39c-14.63,0-39.07,5.62-62.08,11.87-23.53,6.37-47.25,13.89-61.2,18.45a32.66,32.66,0,0,0-22.14,26.76c-12.63,94.91,16.69,165.26,52.26,211.79a249.75,249.75,0,0,0,53.37,52,149.51,149.51,0,0,0,22.22,13.25c5.93,2.8,12.31,5.09,17.57,5.09s11.62-2.29,17.58-5.09A151.79,151.79,0,0,0,315,407.27a249.75,249.75,0,0,0,53.37-52c35.57-46.53,64.89-116.88,52.26-211.79a32.67,32.67,0,0,0-22.14-26.78q-30.37-10-61.2-18.45C314.28,92,289.84,86.39,275.21,86.39Zm0,109.05a31.8,31.8,0,0,1,10.6,61.8L294,299.43a10.59,10.59,0,0,1-8.39,12.42,10.48,10.48,0,0,1-2,.19h-16.7a10.59,10.59,0,0,1-10.58-10.61,10.34,10.34,0,0,1,.19-2l8.14-42.19a31.8,31.8,0,0,1,10.6-61.8Z" style="fill:#f6e05e;fill-rule:evenodd"/><path d="M257.22,86.39c-14.63,0-39.08,5.62-62.08,11.87-23.53,6.37-47.26,13.89-61.21,18.45a32.65,32.65,0,0,0-22.13,26.76c-12.64,94.91,16.69,165.26,52.26,211.79a249.94,249.94,0,0,0,53.36,52,150.53,150.53,0,0,0,22.22,13.25c5.94,2.8,12.32,5.09,17.58,5.09s11.62-2.29,17.57-5.09A151.89,151.89,0,0,0,297,407.27a249.47,249.47,0,0,0,53.36-52c35.58-46.53,64.9-116.88,52.27-211.79a32.67,32.67,0,0,0-22.14-26.78q-30.37-10-61.21-18.45C296.29,92,271.85,86.39,257.22,86.39Zm0,109.05a31.8,31.8,0,0,1,10.6,61.8L276,299.43A10.58,10.58,0,0,1,265.57,312H248.86a10.6,10.6,0,0,1-10.58-10.61,10.36,10.36,0,0,1,.2-2l8.14-42.19a31.8,31.8,0,0,1,10.6-61.8Z" style="fill:#ecc94b;fill-rule:evenodd"/><ellipse cx="271.5" cy="227.36" rx="16.11" ry="16.69" style="fill:#2c7a7b"/><circle cx="272.07" cy="227.36" r="14.38" style="fill:#333"/><path d="M236.79,86.39c-14.63,0-39.07,5.62-62.08,11.87-23.53,6.37-47.25,13.89-61.2,18.45a32.65,32.65,0,0,0-22.14,26.76c-12.63,94.91,16.69,165.26,52.26,211.79a249.75,249.75,0,0,0,53.37,52,150,150,0,0,0,22.21,13.25c5.94,2.8,12.32,5.09,17.58,5.09s11.62-2.29,17.57-5.09a151.89,151.89,0,0,0,22.22-13.25,249.75,249.75,0,0,0,53.37-52c35.57-46.53,64.89-116.88,52.26-211.79a32.67,32.67,0,0,0-22.14-26.78q-30.37-10-61.2-18.45C275.86,92,251.42,86.39,236.79,86.39Zm0,109.05a31.8,31.8,0,0,1,10.6,61.8l8.16,42.19A10.58,10.58,0,0,1,245.14,312h-16.7a10.6,10.6,0,0,1-10.59-10.61,11.21,11.21,0,0,1,.2-2l8.14-42.19a31.8,31.8,0,0,1,10.6-61.8Z" style="fill:#d69e2e;fill-rule:evenodd"/></svg>