<svg xmlns="http://www.w3.org/2000/svg" viewBox="0 0 512 512"><rect x="-0.43" y="0.16" width="512" height="512" style="fill:#ffcd38"/><path d="M339.7,171.53H327.9v20.64l20.64,33a72.32,72.32,0,1,1-43.76,78.92h-49.2a12.07,12.07,0,0,1-10.22-5.66l-50-80.08-12.24,19.57a72.35,72.35,0,1,1-20.45-12.77l19.46-31.1-7.5-22.54H159.77a12.07,12.07,0,0,1-12.22-11.61,11.78,11.78,0,0,1,11.79-12h25.12a12,12,0,0,1,11.36,8.2l9.25,27.75h99.24V171.53a11.8,11.8,0,0,1-11.8-12,12.07,12.07,0,0,1,12.22-11.61h34.54a12.07,12.07,0,0,1,12.22,11.61A11.78,11.78,0,0,1,339.7,171.53Zm-62.36,109h27.39A72.31,72.31,0,0,1,328,238.6L315.77,219Zm16.74-73H217.22L255.65,269Zm60.12,73L341,259.43a48.13,48.13,0,0,0-11.71,21.09Zm31.89,5.2a12.06,12.06,0,0,1,.34,12.2,12.25,12.25,0,0,1-10.83,6.19H329.31c.21.82.45,1.64.7,2.44a48.1,48.1,0,1,0,31.38-60.35ZM170.6,258.9l-24.67,39.49a12,12,0,0,1-20.4-12.75l24.68-39.51a48.11,48.11,0,1,0,20.39,12.75Z" style="fill:#333"/></svg>