<svg xmlns="http://www.w3.org/2000/svg" viewBox="0 0 512 512"><rect y="0.04" width="512" height="511.96" style="fill:#ffcd38"/><polyline points="512 511.96 512 0 48 0" style="fill:#fcee21"/><polyline points="512 0 0 0 0 463.97" style="fill:#fbb03b"/><path d="M159.65,159.55a12.08,12.08,0,0,1,12.22-11.61h34.55a12.07,12.07,0,0,1,12.22,11.61,11.8,11.8,0,0,1-11.8,12v12.36h99.24l9.25-27.75a12,12,0,0,1,11.36-8.2h25.12a11.79,11.79,0,0,1,11.79,12,12.07,12.07,0,0,1-12.22,11.61H336.56l-7.5,22.54,19.46,31.1a72.28,72.28,0,1,1-20.45,12.77l-12.24-19.57-50.05,80.08a12,12,0,0,1-10.22,5.66h-49.2a72.31,72.31,0,1,1-43.75-78.92l20.64-33V171.53h-11.8A11.8,11.8,0,0,1,159.65,159.55ZM195.38,219,183.16,238.6a72.24,72.24,0,0,1,23.25,41.92h27.4Zm60.12,50,38.43-61.49H217.07Zm-73.66,11.54a48,48,0,0,0-11.72-21.09L157,280.52ZM149.76,246.2a48.1,48.1,0,1,0,31.38,60.35c.25-.8.48-1.62.7-2.44H135.55a12.25,12.25,0,0,1-10.83-6.19,12.06,12.06,0,0,1,.34-12.2Zm190.79,12.68a48.08,48.08,0,1,0,20.39-12.75l24.67,39.51a12,12,0,0,1-20.39,12.75L340.55,258.9Z" style="fill:#333"/></svg>